<?xml version="1.0" encoding="utf-8"?>
<!-- Generator: Adobe Illustrator 22.0.0, SVG Export Plug-In . SVG Version: 6.00 Build 0)  -->
<svg version="1.1" id="Capa_1" xmlns="http://www.w3.org/2000/svg" xmlns:xlink="http://www.w3.org/1999/xlink" x="0px" y="0px"
	 viewBox="0 0 512 512" style="enable-background:new 0 0 512 512;" xml:space="preserve" fill="#006992">
<g>
	<path d="M460.9,73c0-0.1,0-0.1,0-0.2c0-0.3,0-0.6-0.1-0.9c0,0,0,0,0-0.1c-0.1-0.3-0.1-0.6-0.2-0.9c0-0.1,0-0.1-0.1-0.2
		c-0.1-0.3-0.2-0.6-0.4-0.9c0,0,0,0,0,0c-0.2-0.3-0.3-0.6-0.5-0.8c0-0.1-0.1-0.1-0.1-0.2c-0.2-0.3-0.4-0.5-0.6-0.8L394.9,2.3
		c-0.2-0.2-0.5-0.5-0.8-0.7c-0.1,0-0.1-0.1-0.2-0.1c-0.5-0.4-1.1-0.7-1.7-1c-0.1,0-0.1-0.1-0.2-0.1c-0.3-0.1-0.6-0.2-0.9-0.3
		c0,0,0,0,0,0c-0.3-0.1-0.6-0.1-1-0.1c-0.1,0-0.2,0-0.2,0c-0.1,0-0.2,0-0.3,0H63.6c-6.9,0-12.5,5.6-12.5,12.5v113.7v94.2v279
		c0,6.9,5.6,12.5,12.5,12.5h339.7h14.4h30.7c6.9,0,12.5-5.6,12.5-12.5V73.2C460.9,73.1,460.9,73,460.9,73z M397,26l38.6,39.7
		c0,0-38.6,0-38.6,0V26z M417.7,497h-14.4H66.1V220.5v-94.2V15H382v58.2c0,4.2,3.4,7.5,7.5,7.5h56.4V497H417.7z"/>
	<path d="M290.8,106.5c6.9,0,12.5-5.6,12.5-12.5V52.4c0-6.9-5.6-12.5-12.5-12.5H109.7c-6.9,0-12.5,5.6-12.5,12.5V94
		c0,6.9,5.6,12.5,12.5,12.5H290.8z M112.2,54.9h176.1v36.5H112.2V54.9z"/>
	<path d="M172.2,145.8c-3.3-2.5-8-1.9-10.5,1.4l-33.2,43.7l-10-8.7c-3.1-2.7-7.9-2.4-10.6,0.7c-2.7,3.1-2.4,7.9,0.7,10.6l16,14
		c1.4,1.2,3.1,1.9,4.9,1.9c0.3,0,0.5,0,0.8,0c2.1-0.2,4-1.3,5.2-2.9l38.1-50.1C176.2,153,175.6,148.3,172.2,145.8z"/>
	<path d="M398.4,144.3H209.1c-4.1,0-7.5,3.4-7.5,7.5s3.4,7.5,7.5,7.5h189.3c4.2,0,7.5-3.4,7.5-7.5S402.6,144.3,398.4,144.3z"/>
	<path d="M332,169.3H209.1c-4.1,0-7.5,3.4-7.5,7.5s3.4,7.5,7.5,7.5H332c4.2,0,7.5-3.4,7.5-7.5S336.2,169.3,332,169.3z"/>
	<path d="M209.1,209.4h150.9c4.2,0,7.5-3.4,7.5-7.5s-3.4-7.5-7.5-7.5H209.1c-4.1,0-7.5,3.4-7.5,7.5S205,209.4,209.1,209.4z"/>
	<path d="M172.2,248c-3.3-2.5-8-1.9-10.5,1.4l-33.2,43.7l-10-8.7c-3.1-2.7-7.9-2.4-10.6,0.7c-2.7,3.1-2.4,7.9,0.7,10.6l16,14
		c1.4,1.2,3.1,1.9,4.9,1.9c0.3,0,0.5,0,0.8,0c2.1-0.2,4-1.3,5.2-2.9l38.1-50.1C176.2,255.2,175.6,250.5,172.2,248z"/>
	<path d="M398.4,246.5H209.1c-4.1,0-7.5,3.4-7.5,7.5s3.4,7.5,7.5,7.5h189.3c4.2,0,7.5-3.4,7.5-7.5
		C405.9,249.8,402.6,246.5,398.4,246.5z"/>
	<path d="M332,271.5H209.1c-4.1,0-7.5,3.4-7.5,7.5s3.4,7.5,7.5,7.5H332c4.2,0,7.5-3.4,7.5-7.5S336.2,271.5,332,271.5z"/>
	<path d="M201.6,304.1c0,4.2,3.4,7.5,7.5,7.5h150.9c4.2,0,7.5-3.4,7.5-7.5s-3.4-7.5-7.5-7.5H209.1
		C205,296.6,201.6,299.9,201.6,304.1z"/>
	<path d="M398.4,348.7H209.1c-4.1,0-7.5,3.4-7.5,7.5s3.4,7.5,7.5,7.5h189.3c4.2,0,7.5-3.4,7.5-7.5
		C405.9,352,402.6,348.7,398.4,348.7z"/>
	<path d="M209.1,388.8H332c4.2,0,7.5-3.4,7.5-7.5s-3.4-7.5-7.5-7.5H209.1c-4.1,0-7.5,3.4-7.5,7.5S205,388.8,209.1,388.8z"/>
	<path d="M360.1,398.8H209.1c-4.1,0-7.5,3.4-7.5,7.5s3.4,7.5,7.5,7.5h150.9c4.2,0,7.5-3.4,7.5-7.5S364.2,398.8,360.1,398.8z"/>
	<path d="M158.7,348.7h-40.1c-6.9,0-12.5,5.6-12.5,12.5v40.1c0,6.9,5.6,12.5,12.5,12.5h40.1c6.9,0,12.5-5.6,12.5-12.5v-40.1
		C171.2,354.3,165.6,348.7,158.7,348.7z M156.2,398.8h-35.1v-35.1h35.1V398.8z"/>
</g>
</svg>
