<?xml version="1.0" encoding="iso-8859-1"?>
<!-- Generator: Adobe Illustrator 23.1.0, SVG Export Plug-In . SVG Version: 6.00 Build 0)  -->
<svg version="1.1" id="Solid" xmlns="http://www.w3.org/2000/svg" xmlns:xlink="http://www.w3.org/1999/xlink" x="0px" y="0px"
	 viewBox="0 0 504.007 335.997" style="enable-background:new 0 0 504.007 335.997;" xml:space="preserve" fill="#006992">
<g>
	<path d="M463.116,272.51c-2.329-1.268-4.605-2.507-6.776-3.712c-19.04-10.572-35.176-21.407-49.092-32.254
		c17.288,2.144,31.174,3.676,42.16,3.676c15.905,0,25.76-3.208,31.157-12.404c6.879-11.718,2.561-25.638-21-67.7
		C402.461,58.171,373.798,7.002,338.928,0.953C307.489-4.498,270.179,13.56,233.877,51.81
		c-30.541,32.181-56.077,75.155-65.327,109.833c-25.413,25.771-60.663,57.364-120.849,88.738c-1.63,0.849-3.309,1.715-5.019,2.596
		c-20.753,10.695-44.274,22.817-42.598,38.122c1.287,11.729,16.848,20.82,47.571,27.788c21.081,4.781,43.083,7.119,51.563,7.902
		c34.926,3.222,53.48,0.017,73.121-3.381c15.852-2.742,32.243-5.577,59.195-5.786c35.422-0.287,56.061,4.068,77.925,8.664
		c22.714,4.776,46.182,9.711,87.532,9.711c0.937,0,1.885-0.003,2.841-0.008c0.247-0.001,25.901-0.28,51.431-3.599
		c33.943-4.412,50.646-11.617,52.564-22.677C506.212,295.97,484.303,284.044,463.116,272.51z M94.168,281.014
		c-5.81,0-10.521-4.755-10.521-10.62s4.71-10.62,10.521-10.62s10.521,4.755,10.521,10.62S99.978,281.014,94.168,281.014z
		 M125.73,264.022c-3.486,0-6.313-2.853-6.313-6.372c0-3.519,2.826-6.372,6.313-6.372c3.486,0,6.312,2.853,6.312,6.372
		C132.042,261.169,129.216,264.022,125.73,264.022z M153.31,281.014c-3.486,0-6.312-2.853-6.312-6.372s2.826-6.372,6.312-6.372
		c3.486,0,6.312,2.853,6.312,6.372S156.796,281.014,153.31,281.014z M155.187,230.038c-3.486,0-6.313-2.853-6.313-6.372
		c0-3.519,2.826-6.372,6.313-6.372c3.486,0,6.312,2.853,6.312,6.372C161.5,227.185,158.673,230.038,155.187,230.038z
		 M186.749,264.022c-4.648,0-8.417-3.804-8.417-8.496s3.768-8.496,8.417-8.496c4.648,0,8.417,3.804,8.417,8.496
		S191.397,264.022,186.749,264.022z M224.623,183.31c-3.486,0-6.312-2.853-6.312-6.372s2.826-6.372,6.312-6.372
		c3.486,0,6.313,2.853,6.313,6.372S228.109,183.31,224.623,183.31z M319.308,191.806c-3.486,0-6.313-2.853-6.313-6.372
		s2.826-6.372,6.313-6.372s6.312,2.853,6.312,6.372S322.794,191.806,319.308,191.806z M336.141,276.766
		c-5.811,0-10.521-4.755-10.521-10.62s4.71-10.62,10.521-10.62c5.81,0,10.521,4.755,10.521,10.62S341.951,276.766,336.141,276.766z
		 M344.557,221.542c-3.486,0-6.312-2.853-6.312-6.372c0-3.519,2.826-6.372,6.312-6.372c3.486,0,6.312,2.853,6.312,6.372
		C350.869,218.689,348.043,221.542,344.557,221.542z M365.598,255.526c-3.486,0-6.313-2.853-6.313-6.372
		c0-3.519,2.826-6.372,6.313-6.372c3.486,0,6.312,2.853,6.312,6.372C371.911,252.673,369.085,255.526,365.598,255.526z
		 M332.773,157.472c-23.048-30.404-39.699-52.372-73.729-54.476c-32.587-2.022-49.802,16.085-75.872,43.479
		c-0.676,0.71-1.362,1.431-2.051,2.154C205.863,82.309,279.429-1.244,337.561,8.836c31.118,5.397,59.159,55.457,115.023,155.189
		c21.012,37.51,25.938,51.468,21.082,59.74c-7.153,12.187-31.404,9.133-75.431,3.588l-2.639-0.332
		C366.95,202.538,348.62,178.378,332.773,157.472z M386.639,293.758c-5.81,0-10.521-4.755-10.521-10.62s4.71-10.62,10.521-10.62
		s10.521,4.755,10.521,10.62S392.45,293.758,386.639,293.758z M403.472,268.27c-3.486,0-6.313-2.853-6.313-6.372
		c0-3.519,2.826-6.372,6.313-6.372c3.486,0,6.312,2.853,6.312,6.372C409.785,265.417,406.959,268.27,403.472,268.27z"/>
	<path d="M361.39,140.83c-3.486,0-6.312,2.853-6.312,6.372c0,3.519,2.826,6.372,6.312,6.372c3.486,0,6.312-2.853,6.312-6.372
		C367.702,143.683,364.876,140.83,361.39,140.83z"/>
	<path d="M395.056,128.086c3.486,0,6.312-2.853,6.312-6.372s-2.826-6.372-6.312-6.372c-3.486,0-6.313,2.853-6.313,6.372
		S391.57,128.086,395.056,128.086z"/>
	<path d="M403.472,166.318c0-4.692-3.768-8.496-8.417-8.496c-4.648,0-8.417,3.804-8.417,8.496s3.768,8.496,8.417,8.496
		C399.704,174.814,403.472,171.01,403.472,166.318z"/>
	<path d="M432.93,191.806c5.81,0,10.521-4.755,10.521-10.62c0-5.865-4.71-10.62-10.521-10.62c-5.811,0-10.521,4.755-10.521,10.62
		C422.409,187.052,427.119,191.806,432.93,191.806z"/>
	<path d="M374.015,81.358c-4.648,0-8.416,3.804-8.416,8.496s3.768,8.496,8.416,8.496c4.648,0,8.417-3.804,8.417-8.496
		S378.663,81.358,374.015,81.358z"/>
	<path d="M359.286,53.746c0-3.519-2.826-6.372-6.312-6.372s-6.312,2.853-6.312,6.372c0,3.519,2.826,6.372,6.312,6.372
		S359.286,57.266,359.286,53.746z"/>
</g>
</svg>
